<?xml version="1.0" encoding="utf-8"?>
<!-- Generator: Adobe Illustrator 25.4.1, SVG Export Plug-In . SVG Version: 6.00 Build 0)  -->
<svg version="1.1" id="Layer_1" xmlns="http://www.w3.org/2000/svg" xmlns:xlink="http://www.w3.org/1999/xlink" x="0px" y="0px"
	 viewBox="0 0 430 685" style="enable-background:new 0 0 430 685;" xml:space="preserve">
<style type="text/css">
	.st0{fill:#F7BBA1;}
</style>
<g>
	<g>
		<path class="st0" d="M283.6,581c64.8,0,89.1-19.8,123.3-62.1c0.9,14.4,0.9,27,0.9,39.6c0,86.4-18,126-113.4,126
			c-83.7,0-128.7-32.4-216.9-32.4c-20.7,0-53.1,18.9-71.1,25.2c-1.8-9.9-1.8-19.8-1.8-29.7c0-191.7,296.1-297,296.1-513
			c0-55.8-19.8-80.1-64.8-80.1c-50.4,0-63,32.4-63,64.8c0,25.2,8.1,55.8,34.2,63.9c-20.7,18.9-45.9,30.6-68.4,30.6
			c-35.1,0-64.8-25.2-64.8-78.3c0-64.8,49.5-135,185.4-135c123.3,0,171,57.6,171,145.8c0,204.3-258.3,292.5-324.9,419.4
			c3.6,0,7.2-0.9,10.8-0.9C163,564.8,223.3,581,283.6,581z"/>
	</g>
</g>
</svg>
