<?xml version="1.0" encoding="utf-8"?>
<!-- Generator: Adobe Illustrator 25.4.1, SVG Export Plug-In . SVG Version: 6.00 Build 0)  -->
<svg version="1.1" id="Layer_1" xmlns="http://www.w3.org/2000/svg" xmlns:xlink="http://www.w3.org/1999/xlink" x="0px" y="0px"
	 viewBox="0 0 443 680" style="enable-background:new 0 0 443 680;" xml:space="preserve">
<style type="text/css">
	.st0{fill:#F49871;}
</style>
<g>
	<g>
		<path class="st0" d="M100,528.5c0,70.2,40.5,79.2,77.4,79.2c71.1,0,116.1-78.3,116.1-158.4c0-71.1-36-141.3-119.7-151.2
			c101.7-27.9,153.9-106.2,153.9-169.2c0-41.4-22.5-74.7-68.4-74.7c-43.2,0-71.1,22.5-71.1,64.8c0,24.3,9,56.7,34.2,63.9
			c-22.5,20.7-46.8,30.6-68.4,30.6c-36,0-64.8-27.9-64.8-76.5c0-81.9,81.9-136.8,186.3-136.8c110.7,0,167.4,61.2,167.4,131.4
			c0,59.4-40.5,126-123.3,167.4C398.8,326.9,433,389,433,456.5c0,104.4-99.9,223.2-253.8,223.2C127,679.8,0.1,664.5,0.1,525.8
			C0.1,451.1,37,397.1,109,397.1c33.3,0,63,11.7,70.2,45.9C114.4,443,100,493.4,100,528.5z"/>
	</g>
</g>
</svg>
