<?xml version="1.0" encoding="utf-8"?>
<!-- Generator: Adobe Illustrator 25.4.1, SVG Export Plug-In . SVG Version: 6.00 Build 0)  -->
<svg version="1.1" id="Layer_1" xmlns="http://www.w3.org/2000/svg" xmlns:xlink="http://www.w3.org/1999/xlink" x="0px" y="0px"
	 viewBox="0 0 440 680" style="enable-background:new 0 0 440 680;" xml:space="preserve">
<style type="text/css">
	.st0{fill:#EC5614;}
</style>
<g>
	<g>
		<path class="st0" d="M439.1,29.9c0,57.6-27,104.4-103.5,104.4c-47.7,0-113.4-18-150.3-22.5l-36,162.9
			c41.4-19.8,79.2-27.9,112.5-27.9c108.9,0,158.4,86.4,158.4,186.3c0,124.2-77.4,246.6-259.2,246.6c-72,0-160.2-18.9-160.2-130.5
			c0-94.5,63-127.8,117-127.8c35.1,0,57.6,14.4,63.9,45.9c-46.8,5.4-81.9,23.4-81.9,73.8c0,48.6,31.5,72,72.9,72
			c79.2,0,117.9-88.2,117.9-165.6c0-79.2-40.5-125.1-100.8-125.1c-48.6,0-99.9,28.8-134.1,50.4l73.8-359.1
			c63,7.2,112.5,15.3,162,15.3c45.9,0,90.9-7.2,145.8-28.8C438.1,10.1,439.1,20,439.1,29.9z"/>
	</g>
</g>
</svg>
