<?xml version="1.0" encoding="utf-8"?>
<!-- Generator: Adobe Illustrator 25.4.1, SVG Export Plug-In . SVG Version: 6.00 Build 0)  -->
<svg version="1.1" id="Layer_1" xmlns="http://www.w3.org/2000/svg" xmlns:xlink="http://www.w3.org/1999/xlink" x="0px" y="0px"
	 viewBox="0 0 600 650" style="enable-background:new 0 0 600 650;" xml:space="preserve">
<style type="text/css">
	.st0{fill:#EC5614;}
</style>
<g>
	<path class="st0" d="M463.6,64c-14.7,4.8-29.8,8.8-45.3,12c-18.9,3.9-37.4,5.8-55.4,5.8c-5.4,0-10.5-0.3-15.3-0.9
		c-4.8-0.6-9.3-1.5-13.5-2.7c-4.8-1.2-9-2.4-12.6-3.6c-1.8-12.6-5.1-24.3-9.9-35.1c-4.2-8.4-10.2-16.3-18-23.9c0,0-0.1-0.1-0.1-0.1
		v117.8c0,8.9,5,16.6,12.3,20.6l4.9-10.9c16.2,4.8,32.1,9,47.7,12.6c1.7,0.4,3.5,0.7,5.2,1.1h76.6c12.9,0,23.3-10.5,23.3-23.3V64z
		 M406.5,124.3c-9.3,14-22.8,14-28.5,14c0,0,0,0,0,0v0c-5.8,0-19.2,0-28.5-14c-1-1.5-0.6-3.6,0.9-4.6c1.5-1,3.6-0.6,4.6,0.9
		c7.3,11.1,17.5,11.1,23,11.1v0c0,0,0,0,0,0h0c5.5,0,15.7,0,23-11.1c1-1.5,3.1-2,4.6-0.9C407.1,120.7,407.5,122.7,406.5,124.3z
		 M409.2,111.1c-1.5,0-2.9-0.3-4.2-0.9c-2.2,3.6-6.1,5.9-10.6,5.9c-5.4,0-9.9-3.4-11.6-8.2c-1.3,0.6-2.6,0.9-4.1,0.9
		c-1.6,0-3.1-0.4-4.4-1c-1.5,4-5.4,6.9-9.9,6.9c-3.8,0-7.2-2-9-5.1c-1.8,1-3.8,1.5-6,1.5c-6.8,0-12.4-5.5-12.4-12.4
		s5.5-12.4,12.4-12.4c5.2,0,9.7,3.2,11.5,7.8c1.1-0.4,2.3-0.6,3.5-0.6c1.9,0,3.8,0.5,5.3,1.4c1.5-3.4,5-5.8,9-5.8
		c3.5,0,6.6,1.9,8.4,4.7c2.1-1.5,4.6-2.4,7.4-2.4c2.8,0,5.3,0.9,7.4,2.4c1.9-2,4.5-3.2,7.4-3.2c5.7,0,10.3,4.6,10.3,10.3
		C419.5,106.5,414.9,111.1,409.2,111.1z"/>
	<path class="st0" d="M472.5,417.8V289.1c-8.7-11.1-18.9-20.7-30.6-28.9c-4.7,2.2-10,3.5-15.6,3.5c-15.8,0-29.2-10-34.3-24.1
		c-3.7,1.7-7.8,2.7-12.1,2.7c-4.7,0-9.1-1.1-13-3.1c-4.4,11.8-15.8,20.2-29.1,20.2c-11.3,0-21.1-6-26.6-15
		c-5.2,2.9-11.2,4.5-17.6,4.5c-2.7,0-5.3-0.3-7.8-0.8v21c7.3,0.3,14.8,1.3,22.7,3c9.9,2.1,19,6.5,27.4,13.1
		c8.4,6.6,15.4,16.4,21.2,29.2c5.7,12.9,8.6,30.2,8.6,51.8c0,17.9-1.4,35.1-4.3,51.6H472.5z M416.5,361.5c-5,0-9.1-4.1-9.1-9.1
		c0-5,4.1-9.1,9.1-9.1c5,0,9.1,4.1,9.1,9.1C425.6,357.4,421.5,361.5,416.5,361.5z M436.8,343.3c-5,0-9.1-4.1-9.1-9.1
		c0-5,4.1-9.1,9.1-9.1c5,0,9.1,4.1,9.1,9.1C446,339.2,441.9,343.3,436.8,343.3z M439,297.7c5,0,9.1,4.1,9.1,9.1s-4.1,9.1-9.1,9.1
		c-5,0-9.1-4.1-9.1-9.1S434,297.7,439,297.7z M420.8,274.7c5,0,9.1,4.1,9.1,9.1c0,5-4.1,9.1-9.1,9.1c-5,0-9.1-4.1-9.1-9.1
		C411.7,278.8,415.7,274.7,420.8,274.7z M407.4,301.8c5,0,9.1,4.1,9.1,9.1c0,5-4.1,9.1-9.1,9.1c-5,0-9.1-4.1-9.1-9.1
		C398.3,305.9,402.3,301.8,407.4,301.8z"/>
	<path class="st0" d="M591.1,8.9c-3.3-3-6.5-4.5-9.4-4.5c-4.8,0-10.8,2.7-18,8.1c-11.4,9-24.9,17.7-40.5,26.1
		c-14.5,7.8-29.9,14.7-46.3,20.7v74.1c0,12-5.8,22.6-14.7,29.3c5.2-2,10.5-4.7,16-8c13.8-8.4,27.4-18.9,40.9-31.5
		s26.1-26.4,37.8-41.4c11.7-15,21.7-29.1,30.1-42.3c2.4-3.6,4.5-7.2,6.3-10.8c1.8-3.6,2.7-7.2,2.7-10.8
		C596.1,14.9,594.4,11.9,591.1,8.9z"/>
	<path class="st0" d="M485.9,309.6v75.6h6.2c2.1,0,3.9-1,5.2-2.4c0.5-6.3,0.8-12.7,0.8-19.1C498,343.3,494,325.3,485.9,309.6z"/>
	<path class="st0" d="M149.7,365.3c12,0,23.7-4.5,35.1-13.5c11.4-9,21.6-18.9,30.6-29.7c10.8-12.6,20.7-27,29.7-43.2
		c3.6-1.2,7.2-2.7,10.8-4.5c3-1.2,6.6-2.4,10.8-3.6c1.9-0.5,3.8-0.9,5.8-1.2v-27.4c-9.3-6.6-15.3-17.4-15.3-29.7
		c0-20.1,16.3-36.4,36.4-36.4c0.8,0,1.6,0,2.4,0.1l4.5-10c-12-6-20.2-18.5-20.2-32.8v-104h-11.6c-5.9,0-10.8-4.4-12.6-11.2
		l-3.4-12.8c-9.1,1.7-17.9,5.9-26.4,12.6c-11.4,9-17.1,22.2-17.1,39.6c0,7.8,2.1,15.3,6.3,22.5c4.2,7.2,9,14.1,14.4,20.7
		c6,7.2,12.9,14.4,20.7,21.6l-59.4,123.3c-15.6,7.2-29.4,15-41.4,23.4c-10.2,7.2-19.7,15.8-28.4,25.6c-8.7,9.9-13,20-13,30.2
		c0,11.4,3.7,21,11.2,28.8C127,361.4,137.1,365.3,149.7,365.3z"/>
	<path class="st0" d="M269.4,16.1h10.8v-6c0-0.9,0-1.8,0.1-2.7c-4.3-1.6-9-2.5-14.2-2.8l2.7,10.2C269.1,15.4,269.3,15.8,269.4,16.1z
		"/>
	<path class="st0" d="M492.1,398.5h-6.2v32.7H358.8c-1.9,8.6-4.3,16.9-7,25c-9.3,27.6-21.6,51.8-36.9,72.4
		c-15.3,20.7-33.3,36.9-54,48.6s-42.2,17.5-64.4,17.5c-15.6,0-29.1-2.1-40.5-6.3c-11.4-4.2-20.9-9.6-28.3-16.2
		c-7.5-6.6-13-13.9-16.7-22c-3.6-8.1-5.4-16.3-5.4-24.8c0-13.8,3.7-27,11.2-39.6c7.5-12.6,13.6-22.2,18.5-28.8
		c2.4-3,4.2-5.4,5.4-7.2c1.2-1.8,1.8-4.2,1.8-7.2c0-6.6-4.5-9.9-13.5-9.9c-3.6,0-12,2.6-25.2,7.7c-13.2,5.1-27.3,12.3-42.3,21.6
		c-15,9.3-28.3,20.1-40,32.4c-11.7,12.3-17.6,25.7-17.6,40c0,16.8,4.7,32.3,14,46.4c9.3,14.1,22.2,26.1,38.7,36
		c16.5,9.9,36,17.5,58.5,22.9s46.9,8.1,73.3,8.1c36,0,72.3-7.5,108.9-22.5c36.6-15,69.8-35.2,99.4-60.8c29.7-25.5,54-55.5,72.9-90
		c13.3-24.2,21.9-49.8,25.8-76.5C494.4,398.3,493.2,398.5,492.1,398.5z"/>
</g>
</svg>
