<?xml version="1.0" encoding="utf-8"?>
<!-- Generator: Adobe Illustrator 25.4.1, SVG Export Plug-In . SVG Version: 6.00 Build 0)  -->
<svg version="1.1" id="Layer_1" xmlns="http://www.w3.org/2000/svg" xmlns:xlink="http://www.w3.org/1999/xlink" x="0px" y="0px"
	 viewBox="0 0 625 650" style="enable-background:new 0 0 625 650;" xml:space="preserve">
<style type="text/css">
	.st0{fill:#FBDDD0;}
</style>
<g>
	<path class="st0" d="M384.1,207.9v1.6c0.9-1.6,1.9-3.2,2.8-4.8h-2C384.5,205.1,384.1,206.3,384.1,207.9z"/>
	<path class="st0" d="M315.5,130.1c-6,1.8-12.5,3.3-19.4,4.5c-6.9,1.2-14.3,1.8-22,1.8c-8.2,0-15.1-2-20.6-5.9
		c-2.1,0.7-4.3,1.5-6.4,2.2c-8.2,3-16.2,6.3-23.8,10c-3.8,1.8-7.5,3.7-11.1,5.7c-9,4.9-17.5,10.2-25.1,15.8c-1.5,1.1-3,2.3-4.5,3.4
		c-5.9,4.6-11.2,9.4-15.9,14.3c-1.7,1.7-3.3,3.5-4.7,5.2c-1.5,1.7-2.9,3.5-4.2,5.2s-2.5,3.4-3.6,5.2c-0.8,1.2-1.5,2.5-2.2,3.7
		c2.3,7.3,6.6,13.5,12.8,18.6c9.9,8.1,21.1,12.1,33.8,12.1c11.4,0,22.8-1.5,34.2-4.5c11.4-3,21.6-6.4,30.6-10.4
		c9-3.9,16.5-7.6,22.5-11.2c6-3.6,9.6-5.7,10.8-6.3c-1.2,2.4-5.6,10.7-13,24.8c-4,7.6-8.5,16.3-13.5,26.1c0.3-0.1,0.7-0.2,1-0.3
		c0.8-0.2,1.6-0.5,2.3-0.7c0.9-0.3,1.8-0.5,2.7-0.8c0.7-0.2,1.4-0.4,2.1-0.7c1-0.3,2.1-0.7,3.1-1c0.6-0.2,1.1-0.4,1.7-0.6
		c1.6-0.6,3.2-1.1,4.8-1.7c2.1-0.8,4.2-1.6,6.3-2.4c0.5-0.2,0.9-0.4,1.4-0.6c1.6-0.6,3.2-1.3,4.8-2c0.4-0.2,0.9-0.4,1.3-0.6
		c1.6-0.7,3.3-1.4,4.9-2.1c0.3-0.1,0.6-0.3,1-0.5c1.7-0.8,3.4-1.6,5.1-2.4c0.2-0.1,0.4-0.2,0.6-0.3c1.8-0.9,3.6-1.8,5.3-2.7
		c0.1-0.1,0.2-0.1,0.3-0.2c1.8-1,3.7-1.9,5.5-2.9c0,0,0.1,0,0.1,0c12.4-6.9,23.7-14.5,33.3-22.7c0,0,0,0,0,0
		c1.2-1.1,2.4-2.1,3.6-3.2c0.3-0.2,0.5-0.5,0.8-0.7c0.9-0.9,1.9-1.7,2.8-2.6c1.2-1.1,2.3-2.3,3.4-3.4c3.9-4.1,7.3-8.1,10.2-12.1
		c1.6-2.3,3.1-4.6,4.4-6.8c1.6-2.8,2.9-5.6,4-8.4c0.4-1.1,0.8-2.1,1.1-3.2c0.3-1,0.6-2.1,0.8-3.1c0.6-2.6,0.9-5,0.9-7.4
		c0-0.5,0-1,0-1.4c0-0.9-0.1-1.9-0.3-2.8c-0.3-1.8-0.7-3.6-1.3-5.3c-0.3-0.9-0.7-1.7-1.1-2.5c-0.4-0.8-0.8-1.6-1.3-2.4
		c-0.5-0.8-1-1.6-1.6-2.3c-2.9-3.7-6.8-7-11.8-9.8c-2.1-1.2-4.3-2.2-6.7-3.2c-1.2-0.5-2.4-0.9-3.7-1.4c-3.8-1.3-7.9-2.3-12.3-3.2
		c-2.9-0.6-6-1-9.2-1.3c-1-0.1-2.1-0.2-3.2-0.3c-0.9,1.8-1.9,3.6-2.8,5.5C328.4,126.3,322.1,128.4,315.5,130.1z M219.8,191.4
		c-6.3,0-11.4-5.1-11.4-11.4s5.1-11.4,11.4-11.4c6.3,0,11.4,5.1,11.4,11.4S226.1,191.4,219.8,191.4z"/>
	<path class="st0" d="M239.3,388.4h61.9c2.4-6.3,4.8-12.6,7.2-18.9c-3.8,0.8-7.1,0.8-9.3,0.8c0,0,0,0,0,0v0c-5.6,0-18.9,0-28-13.8
		c-1-1.5-0.6-3.5,0.9-4.5c1.5-1,3.5-0.6,4.5,0.9c7.2,10.8,17.2,10.8,22.6,10.8v0c0,0,0,0,0,0h0c3.1,0,7.7,0,12.4-2
		c2-5,4.1-10.1,6.1-15.1c5.7-13.9,11.5-27.2,17.2-40c-8.2-1.3-14.5-8.4-14.5-16.9c0-9.5,7.7-17.2,17.2-17.2c4.3,0,8.2,1.6,11.2,4.2
		c3.1-6.5,6.3-12.9,9.4-19.1c5.6-11,11-21.3,16.3-31c-3.9-3.1-8.8-4.9-14.2-4.9h-2.1c-18.3,14-41,26.1-66,35.2
		c-10,3.7-20.1,6.7-30.1,9.1c-1.1,2.2-2.2,4.4-3.3,6.7c0.6-0.1,1.3-0.1,1.9-0.1c9.5,0,17.2,7.7,17.2,17.2c0,9.5-7.7,17.2-17.2,17.2
		c-6.2,0-11.6-3.3-14.6-8.2c-7.9,16.3-16.1,33.6-24.7,52.1c-1.7,3.6-3.3,7.2-5,10.8v4C216.4,378.1,226.7,388.4,239.3,388.4z"/>
	<path class="st0" d="M483.3,20.8c-9.3-8.7-20-13-32-13c-15.6,0-30.5,6.2-44.5,18.5c-14.1,12.3-26.5,25.6-37.3,40
		c-9,12-17.5,25.2-25.6,39.7c29.6,3.6,49.6,15.8,56.4,34.4c5.6,15.4,1.4,33.2-11.7,51.2h6.2c0.4-0.7,0.8-1.3,1.2-2
		c11.7-18.6,21.2-30.9,28.3-36.9c22.2-17.4,39.9-35.4,53.1-54c13.2-18.6,19.8-34.2,19.8-46.8C497.3,39.9,492.6,29.5,483.3,20.8z"/>
	<path class="st0" d="M157.2,172.8c20.3-21.1,50.7-39.7,85.4-52.4c0.5-0.2,1-0.3,1.5-0.5c-5.2-8.9-7.8-19.9-7.8-33c0-6-3-9-9-9
		c-2.4,0-4.7,0.6-6.8,1.8c-2.1,1.2-5,3.6-8.5,7.2c-5.4,4.8-11.6,10.8-18.5,18c-6.9,7.2-13.7,15.2-20.2,23.8
		c-6.6,8.7-12.2,18-16.7,27.9c-3.6,7.9-5.7,16-6.5,24.1C152.3,178.1,154.7,175.5,157.2,172.8z"/>
	<path class="st0" d="M296.4,401.5h-57.1c-13.9,0-26-8-32-19.6c-7,16.1-13.7,32.2-20.1,48.4c-10.5,26.7-19.2,52.1-26.1,76.1
		c-6.9,24-10.3,44.4-10.3,61.2c0,7.8,3,16.1,9,24.8c6,8.7,13.2,16.8,21.6,24.3c8.4,7.5,16.9,13.7,25.7,18.4
		c8.7,4.8,15.8,7.2,21.2,7.2c7.2,0,11.7-1.7,13.5-5c1.8-3.3,2.7-7.6,2.7-13c0-24,3.4-51.6,10.4-82.8c6.9-31.2,15.8-63.3,26.5-96.3
		C286,430.6,291.1,416,296.4,401.5z"/>
</g>
</svg>
