<?xml version="1.0" encoding="utf-8"?>
<!-- Generator: Adobe Illustrator 25.4.1, SVG Export Plug-In . SVG Version: 6.00 Build 0)  -->
<svg version="1.1" id="Layer_1" xmlns="http://www.w3.org/2000/svg" xmlns:xlink="http://www.w3.org/1999/xlink" x="0px" y="0px"
	 viewBox="0 0 600 650" style="enable-background:new 0 0 600 650;" xml:space="preserve">
<style type="text/css">
	.st0{fill:#EC5614;}
</style>
<g>
	<g>
		<path class="st0" d="M196.4,593.5c22.2,0,43.6-5.8,64.4-17.5c20.7-11.7,38.7-27.9,54-48.6c15.3-20.7,27.6-44.8,36.9-72.4
			c9.3-27.6,14-57.6,14-90c0-21.6-2.9-38.8-8.6-51.8c-5.7-12.9-12.8-22.6-21.2-29.2c-8.4-6.6-17.5-10.9-27.4-13.1
			c-9.9-2.1-19.4-3.1-28.4-3.1c-4.8,0-9.3,0.6-13.5,1.8c-4.2,1.2-7.8,2.4-10.8,3.6c-3.6,1.8-7.2,3.3-10.8,4.5
			c-9,16.2-18.9,30.6-29.7,43.2c-9,10.8-19.2,20.7-30.6,29.7s-23.1,13.5-35.1,13.5c-12.6,0-22.7-3.9-30.2-11.7s-11.2-17.4-11.2-28.8
			c0-10.2,4.3-20.2,13.1-30.2c8.7-9.9,18.1-18.4,28.4-25.6c12-8.4,25.8-16.2,41.4-23.4l59.4-123.3c-7.8-7.2-14.7-14.4-20.7-21.6
			c-5.4-6.6-10.2-13.5-14.4-20.7c-4.2-7.2-6.3-14.7-6.3-22.5c0-17.4,5.7-30.6,17.1-39.6s23.4-13.5,36-13.5
			c13.2,0,23.7,3.8,31.5,11.2c7.8,7.5,13.8,15.5,18,23.9c4.8,10.8,8.1,22.5,9.9,35.1c3.6,1.2,7.8,2.4,12.6,3.6
			c4.2,1.2,8.7,2.1,13.5,2.7c4.8,0.6,9.9,0.9,15.3,0.9c18,0,36.5-1.9,55.4-5.8c18.9-3.9,37.2-9,54.9-15.3s34.3-13.6,50-22
			c15.6-8.4,29.1-17.1,40.5-26.1c7.2-5.4,13.2-8.1,18-8.1c3,0,6.1,1.5,9.4,4.5c3.3,3,5,6,5,9c0,3.6-0.9,7.2-2.7,10.8
			s-3.9,7.2-6.3,10.8c-8.4,13.2-18.5,27.3-30.1,42.3c-11.7,15-24.3,28.8-37.8,41.4c-13.5,12.6-27.5,22.9-41.2,31.3
			c-13.8,8.4-26.7,12.6-38.7,12.6c-10.8,0-23.6-1.2-38.2-3.6c-14.7-2.4-29-5.1-42.8-8.1c-15.6-3.6-31.5-7.8-47.7-12.6l-40.5,90.9
			c3-1.2,7.2-2.7,12.6-4.5c4.2-1.2,9.6-2.2,16.2-3.1s14.1-1.4,22.5-1.4c20.4,0,41.1,2.9,62.1,8.6s39.9,14.3,56.7,25.7
			c16.8,11.4,30.6,25.8,41.4,43.2c10.8,17.4,16.2,37.8,16.2,61.2c0,39.6-9.4,76.7-28.3,111.1c-18.9,34.5-43.2,64.5-72.9,90
			s-62.9,45.8-99.4,60.8c-36.6,15-72.9,22.5-108.9,22.5c-26.4,0-50.9-2.7-73.4-8.1s-42-13-58.5-22.9s-29.4-21.9-38.7-36
			s-14-29.5-14-46.4c0-14.4,5.9-27.7,17.6-40c11.7-12.3,25.1-23.1,40-32.4c15-9.3,29.1-16.5,42.3-21.6c13.2-5.1,21.6-7.7,25.2-7.7
			c9,0,13.5,3.3,13.5,9.9c0,3-0.6,5.4-1.8,7.2c-1.2,1.8-3,4.2-5.4,7.2c-4.8,6.6-11,16.2-18.4,28.8c-7.5,12.6-11.2,25.8-11.2,39.6
			c0,8.4,1.8,16.6,5.4,24.8s9.1,15.5,16.6,22c7.5,6.6,16.9,12,28.4,16.2C167.2,591.5,180.7,593.5,196.4,593.5z"/>
	</g>
</g>
</svg>
