<?xml version="1.0" encoding="utf-8"?>
<!-- Generator: Adobe Illustrator 25.4.1, SVG Export Plug-In . SVG Version: 6.00 Build 0)  -->
<svg version="1.1" id="Layer_1" xmlns="http://www.w3.org/2000/svg" xmlns:xlink="http://www.w3.org/1999/xlink" x="0px" y="0px"
	 viewBox="0 0 650 650" style="enable-background:new 0 0 650 650;" xml:space="preserve">
<style type="text/css">
	.st0{fill:#F07642;}
</style>
<g>
	<path class="st0" d="M444.2,439.1c0.6-2.4,0-4.5-0.5-5.3h-31.9c-0.3,0.5-0.8,1.7-0.8,3.3v9.8c5.1,4.5,8.9,10.3,10.9,17
		c6-2,12-4.6,17.8-7.7L444.2,439.1z"/>
	<path class="st0" d="M301.1,355.1c-7.7-2.8-14.9-5.5-21.5-8.1c-1,0.8-2,1.5-3,2.3c-1,0.8-2,1.6-2.9,2.5c-1.3,1.1-2.5,2.3-3.7,3.5
		c-0.8,0.8-1.6,1.6-2.4,2.5c-2.3,2.5-4.4,5.1-6.3,7.8c-4,5.7-6.8,11.5-8.4,17.2c-0.6,2.1-1,4.3-1.3,6.4c-0.4,3.5-0.4,7,0.1,10.3
		l70.5-25.6l70.5-25.6c-5.6-9.3-15.7-16.2-29.1-19.8c-1.5-0.4-3.1-0.8-4.7-1.1c-5.7,13.1-11.1,26.1-16.3,39
		C327.5,363.4,313.7,359.6,301.1,355.1z"/>
	<path class="st0" d="M386.8,451.1h-8.5c-7,5.3-14.8,9.6-23.3,12.7c-16.6,6-34.2,7-50.9,3c-4.5,13.3-8.5,25.8-12,37.5
		c6.4,2.6,10.9,8.9,10.9,16.2c0,9.6-7.9,17.5-17.5,17.5c-0.9,0-1.7-0.1-2.5-0.2c-3.4,14.3-5.1,25.3-5.1,32.9
		c0,10.8,3.1,20.9,9.4,30.2c5.2,7.7,11.3,14.4,18.4,20.3h70.4c0.6-21.9,3.2-44.9,8-68.9c5.4-27.3,12.3-55.4,20.7-84.2
		c1.5-0.2,2.9-0.5,4.4-0.8C406,457.9,397.2,451.1,386.8,451.1z M353.4,588.7c-9.3,14-22.8,14-28.5,14c0,0,0,0,0,0v0
		c-5.8,0-19.2,0-28.5-14c-1-1.5-0.6-3.6,0.9-4.6c1.5-1,3.6-0.6,4.6,0.9c7.3,11.1,17.5,11.1,23,11.1v0c0,0,0,0,0,0h0
		c5.5,0,15.7,0,23-11.1c1-1.5,3.1-2,4.6-0.9C354,585.1,354.4,587.1,353.4,588.7z M363.6,537.9c-9.6,0-17.5-7.9-17.5-17.5
		s7.9-17.5,17.5-17.5s17.5,7.9,17.5,17.5S373.3,537.9,363.6,537.9z"/>
	<path class="st0" d="M393,412.1c0.8-1.8,1.6-3.6,2.3-5.4c0,0,0,0,0,0c-0.7,0.9-1.4,1.7-2.1,2.6c-0.2,0.3-0.5,0.6-0.7,0.8
		c-0.5,0.6-1,1.1-1.5,1.7c-0.3,0.3-0.6,0.7-0.9,1c-0.5,0.5-0.9,1-1.4,1.5c-0.3,0.3-0.7,0.7-1,1c-0.5,0.5-0.9,0.9-1.4,1.4
		c-0.4,0.3-0.7,0.7-1.1,1c-0.5,0.4-1,0.9-1.4,1.3c-0.4,0.3-0.8,0.7-1.2,1c-0.5,0.4-1,0.8-1.5,1.2c-0.4,0.3-0.8,0.7-1.2,1
		c-0.5,0.4-1.1,0.8-1.6,1.2c-0.4,0.3-0.8,0.6-1.2,0.9c-0.9,0.7-1.8,1.3-2.7,2c-0.5,0.3-1,0.7-1.5,1c-0.5,0.3-0.9,0.6-1.4,1
		c-0.5,0.4-1.1,0.7-1.6,1c-0.5,0.3-0.9,0.6-1.4,0.9c-0.6,0.3-1.1,0.7-1.7,1c-0.5,0.3-0.9,0.5-1.4,0.8c-0.6,0.3-1.2,0.7-1.8,1
		c-0.4,0.2-0.9,0.5-1.4,0.7c-0.6,0.3-1.2,0.7-1.9,1c-0.4,0.2-0.9,0.4-1.3,0.7c-0.7,0.3-1.3,0.6-2,0.9c-0.4,0.2-0.8,0.4-1.2,0.6
		c-0.7,0.3-1.4,0.6-2.1,1c-2.3,1-4.6,1.9-7,2.8c-11.9,4.3-24.1,6.7-35.9,7.2c-0.7,2.1-1.5,4.2-2.2,6.3c5.1,1.1,10.3,1.7,15.5,1.8
		c0.1,0,0.3,0,0.4,0c0.8,0,1.6,0,2.4,0c0.4,0,0.8,0,1.1,0c0.7,0,1.4-0.1,2.1-0.1c0.5,0,1-0.1,1.4-0.1c0.6-0.1,1.3-0.1,1.9-0.2
		c0.5-0.1,1.1-0.1,1.6-0.2c0.6-0.1,1.2-0.2,1.8-0.3c0.6-0.1,1.2-0.2,1.8-0.3c0.5-0.1,1.1-0.2,1.6-0.3c0.7-0.1,1.3-0.3,1.9-0.4
		c0.5-0.1,1-0.2,1.5-0.4c0.7-0.2,1.5-0.4,2.2-0.6c0.4-0.1,0.8-0.2,1.2-0.3c1.1-0.4,2.3-0.7,3.4-1.1c0,0,0,0,0,0c0,0,0.1,0,0.1-0.1
		c0.1,0,0.2-0.1,0.3-0.1c8.5-3.1,16.1-7.7,22.8-13.3c0,0,0,0,0,0c1-0.8,2-1.7,2.9-2.6c0.1-0.1,0.2-0.2,0.2-0.2
		c0.9-0.8,1.7-1.7,2.5-2.5c0.1-0.1,0.3-0.3,0.4-0.4c0.7-0.8,1.5-1.6,2.2-2.4c0.2-0.2,0.4-0.4,0.5-0.6c0.7-0.8,1.3-1.6,1.9-2.4
		c0.2-0.3,0.4-0.5,0.6-0.8c0.6-0.8,1.1-1.5,1.7-2.3c0.2-0.3,0.4-0.6,0.6-0.9c0.5-0.8,1-1.6,1.5-2.3c0.2-0.3,0.4-0.7,0.6-1
		c0.5-0.8,1-1.6,1.4-2.5c0.2-0.3,0.4-0.6,0.5-1C391.9,414.5,392.4,413.3,393,412.1C393,412.1,393,412.1,393,412.1z"/>
	<path class="st0" d="M230.5,400.6c2.9,1.8,5.9,3.6,8.9,5.4c-6.4-21-4.9-43.4,4.5-63.4c1.5-3.2,3.2-6.3,5-9.2
		c-4-1.9-7.8-3.8-11.6-5.7c27-32.4,51.3-64.2,72.9-95.4c9-13.2,18-26.8,27-40.9c9-14.1,16.9-28.2,23.9-42.3
		c6.9-14.1,12.4-27.7,16.6-40.9c4.2-13.2,6.3-25.2,6.3-36c0-24-8.5-41.5-25.6-52.7c-17.1-11.1-36.8-16.7-59-16.7
		c-14.4,0-29.7,3-45.9,9c-16.2,6-31,12.9-44.5,20.7c-13.5,7.8-24.6,15.9-33.3,24.3c-8.7,8.4-13,14.7-13,18.9c0,3,1.5,6,4.5,9
		c3,3,6,4.5,9,4.5c2.4,0,5.7-1.2,9.9-3.6c4.2-2.4,9.1-5,14.9-7.7c5.7-2.7,11.8-5.2,18.5-7.7c6.6-2.4,13.2-3.6,19.8-3.6
		c9,0,16.8,3.2,23.4,9.5c6.6,6.3,9.9,14.9,9.9,25.6c0,22.8-5.6,46.5-16.7,71.1c-11.1,24.6-23.3,46.8-36.4,66.6
		c-15.6,24-33.3,46.8-53.1,68.4c-7.8-1.8-16.2-3.6-25.2-5.4c-7.8-1.2-16.6-2.4-26.5-3.6c-9.9-1.2-20.2-1.8-31-1.8
		c-9,0-18.2,1.2-27.5,3.6c-9.3,2.4-17.5,6-24.8,10.8c-7.2,4.8-13.2,11-18,18.4c-4.8,7.5-7.2,16.1-7.2,25.7c0,15.6,6.6,29,19.8,40
		c13.2,11.1,27.9,16.6,44.1,16.6c13.8,0,27.5-1.8,41-5.4s25.3-7.8,35.5-12.6c12-5.4,23.1-11.7,33.3-18.9c4.2,0,10.8,2.4,19.8,7.2
		C208.4,387.4,218.8,393.4,230.5,400.6z"/>
	<path class="st0" d="M635,2.8c-4.2,0-11.1,0.9-20.7,2.7c-9.6,1.8-20.2,4.5-32,8.1S559,22,547.3,28c-11.7,6-21.8,13.2-30.2,21.6
		c-12.6,12.6-26.4,30.3-41.4,53.1c-15,22.8-30.2,48.5-45.5,77c-15.3,28.5-30.6,59-45.9,91.4c-5.1,10.9-10.1,21.7-14.9,32.4
		c17.9,10.4,31.5,26.6,38.7,46.3c8.1,22.3,7.1,46.5-3,68c-3.5,7.5-7.9,14.3-13.1,20.4c2.1,0.3,4.2,0.8,6.2,1.5
		c-0.2-0.1-0.4-0.1-0.6-0.2v-2.3c0-9.3,5.9-16.7,13.3-16.7h33.5c3.7,0,7.2,1.8,9.6,5c3.5,4.5,4.6,11,3,17.1l-0.8,3
		c11.3-8.1,21.9-17.3,31.6-27.5c11.7-12.3,21.7-24.4,30.2-36.5c8.4-12,15-21.9,19.8-29.7c3-5.4,4.5-9.9,4.5-13.5
		c0-1.8-0.9-3.7-2.7-5.9c-1.8-2.1-4.2-3.1-7.2-3.1c-3,0-7.2,2.1-12.6,6.3c-7.8,6-18,12.5-30.6,19.4c-12.6,6.9-28.8,12.1-48.6,15.8
		c13.2-33,27.3-64.6,42.3-95c15-30.3,29.2-57.9,42.8-82.8c13.5-24.9,25.7-46.4,36.5-64.4s18.6-30.6,23.4-37.8
		c16.2-25.2,29.8-43.8,41-55.8c11.1-12,16.6-19.8,16.6-23.4C643.1,5.8,640.4,2.8,635,2.8z"/>
	<path class="st0" d="M325.3,634.4c4.1,2.3,8.2,4.3,12.3,6c9.3,3.9,16.9,5.8,23,5.8c8.7,0,13.7-4,15-11.8H325.3z"/>
	<path class="st0" d="M255.1,350.1c-0.5,1.2-1,2.4-1.5,3.6c0,0,0,0,0,0c0,0,0,0,0,0c3.5-4.4,7.6-8.6,12.1-12.5
		c-1.6-0.7-3.1-1.4-4.7-2.1c-1.9,2.9-3.6,6-5.1,9.2C255.6,348.8,255.4,349.4,255.1,350.1z"/>
	<path class="st0" d="M397.2,360.8l-70.5,25.6l-70.5,25.6c0.7,1.2,1.5,2.3,2.3,3.4c0.4,0.5,0.9,1.1,1.3,1.6c0.9,1,1.9,2.1,2.9,3
		c1.9,1.1,3.9,2.3,5.9,3.4c4.1,2.4,8.2,4.7,12.3,7c1.4,0.5,2.9,0.9,4.4,1.4c5.3,1.4,10.9,2.3,16.7,2.5c2.3,0.1,4.7,0.1,7,0.1
		c10.7-0.3,21.8-2.5,32.7-6.5c8.5-3.1,16.4-7.1,23.4-11.8c3-2,5.9-4.2,8.5-6.5c5.4-4.6,10-9.6,13.8-15
		C395.6,383.3,398.9,371.5,397.2,360.8z"/>
</g>
</svg>
