<?xml version="1.0" encoding="utf-8"?>
<!-- Generator: Adobe Illustrator 25.4.1, SVG Export Plug-In . SVG Version: 6.00 Build 0)  -->
<svg version="1.1" id="Layer_1" xmlns="http://www.w3.org/2000/svg" xmlns:xlink="http://www.w3.org/1999/xlink" x="0px" y="0px"
	 viewBox="0 0 555 650" style="enable-background:new 0 0 555 650;" xml:space="preserve">
<style type="text/css">
	.st0{fill:#F49871;}
</style>
<g>
	<path class="st0" d="M487.5,422.7c2.1-7.7,3.8-15.5,5.1-23.4c-3.9-1.9-8.6-3.2-15.1-3.2c-12,0-18,4.5-24.3,9.3
		c-6.6,5-14.1,10.7-28.4,10.7c-2,0-3.8-0.1-5.5-0.3c5.3,8.2,12.6,15.1,21.2,19.9c-1.1-0.6-2.1-1.2-3.1-1.9c1.7-1.2,3.4-2.4,5.1-3.7
		c6.6-5,14.1-10.7,28.4-10.7C477.8,419.4,483.1,420.8,487.5,422.7z"/>
	<path class="st0" d="M394.1,399.4c0.3-1,0.5-2,0.7-3C394.6,397.5,394.4,398.5,394.1,399.4z"/>
	<path class="st0" d="M342,511.1h100.8c9-12.1,17.2-25,24.5-38.5c2.9-5.3,5.6-10.7,8-16.2c-0.5,0-1,0.1-1.5,0.1c-0.3,0-0.6,0-1,0
		c-1.1,0-2.1,0.1-3.2,0.1c0,0,0,0,0,0c-18.4,0-35.8-6.8-49.3-19.1c-0.9-0.8-1.7-1.6-2.5-2.4c-0.4-0.4-0.8-0.8-1.2-1.2
		c-5.7-6-10.3-12.7-13.6-20c-0.9,1.9-1.9,3.9-2.9,5.7c-0.5,0.9-1.1,1.9-1.7,2.8c-0.7,1.2-1.5,2.3-2.3,3.4c-1,1.3-2,2.7-3,4
		c-0.2,0.3-0.4,0.5-0.7,0.8c-1.3,1.6-2.7,3.1-4.2,4.5c-11.9,11.9-27.2,19.2-43.8,21c-6.2,16.2-13.4,31.2-21.7,44.8
		C326.9,507,334,511.1,342,511.1z M375.4,474c1.5-1,3.6-0.6,4.6,0.9c7.3,11.1,17.5,11.1,23,11.1v0c0,0,0,0,0,0h0
		c5.5,0,15.7,0,23-11.1c1-1.5,3.1-2,4.6-0.9c1.5,1,2,3.1,0.9,4.6c-9.3,14-22.8,14-28.5,14c0,0,0,0,0,0v0c-5.8,0-19.2,0-28.5-14
		C373.4,477.1,373.9,475,375.4,474z"/>
	<path class="st0" d="M369.9,433c0.8-0.5,1.6-1.1,2.4-1.7c1.5-1.1,3-2.3,4.4-3.6c-3.1-1-6.7-1.6-11.1-1.6c-4.8,0-8.6,0.7-11.9,1.9
		c-1.2,4.7-2.6,9.3-4,13.8c5.4-1.2,10.6-3.2,15.4-5.8C366.6,435.1,368.3,434.1,369.9,433z"/>
	<path class="st0" d="M384.4,419.1c0.6-0.8,1.1-1.6,1.7-2.4c1.1-1.6,2.1-3.2,3-4.9c1.6-2.9,2.9-5.9,3.9-9c-5.2-3.7-11-6.8-20.9-6.8
		c-5.1,0-9,0.8-12.4,2.1c-1.2,7.6-2.6,15.1-4.3,22.3c3-0.7,6.3-1.1,10.1-1.1c6.7,0,11.9,1.2,16.2,3.1
		C382.6,421.4,383.5,420.3,384.4,419.1z"/>
	<path class="st0" d="M440.6,435.7c1,0.5,1.9,1,2.9,1.5C442.5,436.7,441.5,436.2,440.6,435.7z"/>
	<path class="st0" d="M415.1,408.2c1.2,2.6,2.6,5.1,4.1,7.5C417.7,413.4,416.3,410.9,415.1,408.2z"/>
	<path class="st0" d="M470.8,426.1c-12,0-18,4.5-24.3,9.3c-0.9,0.7-1.7,1.3-2.6,2c7.8,3.7,16.6,5.9,25.8,5.9c3.9,0,7.8-0.4,11.5-1.1
		c1.6-4.3,3.1-8.6,4.4-12.9C481.7,427.3,477.1,426.1,470.8,426.1z"/>
	<path class="st0" d="M342,524.4c-10.6,0-20.1-4.5-26.8-11.7c-2.9,4.2-5.8,8.2-8.9,12.1c-17.1,21.6-36.3,38.4-57.6,50.4
		c-21.3,12-42.8,18-64.4,18c-13.2,0-24.9-2.1-35.1-6.3c-10.2-4.2-18.6-9.6-25.2-16.2c-6.6-6.6-11.7-13.9-15.3-22s-5.4-16.3-5.4-24.8
		c0-13.8,3.7-27,11.2-39.6c7.5-12.6,13.6-22.2,18.4-28.8c2.4-3,4.2-5.4,5.4-7.2c1.2-1.8,1.8-4.2,1.8-7.2c0-6.6-4.5-9.9-13.5-9.9
		c-3.6,0-12,2.6-25.2,7.7c-13.2,5.1-27.3,12.3-42.3,21.6c-15,9.3-28.4,20.1-40,32.4c-11.7,12.3-17.6,25.7-17.6,40
		c0,16.8,4.7,32.3,14,46.4c9.3,14.1,22.2,26.1,38.7,36c16.5,9.9,36,17.5,58.5,22.9s46.9,8.1,73.4,8.1c36,0,72.3-7.5,108.9-22.5
		c36.6-15,69.8-35.2,99.5-60.8c13.8-11.9,26.4-24.7,37.9-38.6H342z"/>
	<path class="st0" d="M395.1,371.2c-1.6-7.8-4.7-15.1-9-21.4c-0.5-0.8-1.1-1.6-1.7-2.4c-5.2-6.9-11.8-12.7-19.5-16.9
		c-0.9-0.5-1.8-0.9-2.7-1.4c0.8,5.8,1.1,11.9,1.1,18.3c0,15-0.9,29.5-2.7,43.4c3.3-0.9,7-1.4,11.4-1.4c10.5,0,17.3,3.1,22.8,6.7
		c0.9-4.1,1.4-8.4,1.4-12.8C396.3,379.1,395.9,375.1,395.1,371.2z"/>
	<path class="st0" d="M409.7,383.3c0,8.9,2,17.4,5.5,25c2.8,0.7,5.9,1.2,9.7,1.2c12,0,18-4.5,24.3-9.3c6.6-5,14.1-10.7,28.4-10.7
		c6.7,0,11.8,1.2,16.1,3.1c1.4-10.3,2.1-20.8,2.1-31.5c0-11.9-0.9-22.8-2.7-32.9c-7.2-3-15.1-4.7-23.3-4.7
		C436.6,323.3,409.7,350.2,409.7,383.3z M484.5,349.3h-3.3c0-3.3-3-6-6.6-6s-6.6,2.7-6.6,6h-3.3c0-3.3-3-6-6.6-6
		c-3.6,0-6.6,2.7-6.6,6h-3.3c0-5.1,4.5-9.3,9.9-9.3c3.4,0,6.5,1.6,8.3,4.1c1.8-2.5,4.8-4.1,8.3-4.1
		C480.1,340,484.5,344.2,484.5,349.3z"/>
	<path class="st0" d="M191.5,235.9c-16.2,6-31,14-44.5,23.9c-13.5,9.9-20.2,22.4-20.2,37.3c0,11.4,3.9,20.6,11.7,27.4
		c7.8,6.9,18,10.4,30.6,10.4c12.6,0,25.2-2.5,37.8-7.6c12.6-5.1,24.6-11.2,36-18.5c11.4-7.2,21.6-14.8,30.6-22.9
		c9-8.1,16.2-15.1,21.6-21.2c22.2,0,39.2,7.5,50.9,22.5c5.9,7.5,10.2,16.3,13.2,26.4c1.8,0.6,3.6,1.2,5.4,2c1.1,0.5,2.2,0.9,3.3,1.4
		c7.5,3.6,14.5,8.4,20.5,14.5c0.8,0.8,1.5,1.6,2.3,2.4c5.2,5.7,9.4,12,12.5,18.8c0.4-1,0.9-1.9,1.4-2.9c0.1-0.2,0.2-0.3,0.2-0.5
		c0.6-1.2,1.3-2.3,2-3.5c0.7-1.2,1.4-2.3,2.2-3.5c0.8-1.2,1.6-2.4,2.5-3.5c1.3-1.7,2.7-3.4,4.2-5c0.7-0.8,1.5-1.6,2.3-2.4
		c0.8-0.8,1.7-1.6,2.5-2.4c5.4-5,11.5-9,18-12.1c1.1-0.5,2.2-1,3.3-1.4c8.8-3.6,18.3-5.5,28.1-5.5c1.3,0,2.5,0,3.8,0.1
		c0.2,0,0.3,0,0.4,0c1.1,0.1,2.3,0.1,3.4,0.3c0,0,0.1,0,0.1,0c2.5,0.3,4.9,0.6,7.3,1.2c0,0,0,0,0,0c1.2-0.6,2.6-0.9,3.9-1
		c-1.9-6.1-4.2-11.7-7-17c-9.3-18-21.3-32.7-36-44.1c-14.7-11.4-30.9-19.5-48.6-24.3c-17.7-4.8-35-7.2-51.8-7.2
		c15-13.8,28.8-26.4,41.4-37.8c10.8-10.2,21.4-20.1,31.9-29.7c10.5-9.6,17.6-16.2,21.2-19.8c36-8.4,63.7-20.2,83.2-35.6
		c19.5-15.3,29.2-32.2,29.2-50.8c0-12.6-3.9-22.6-11.7-30.2c-7.8-7.5-18.6-11.2-32.4-11.2c-15,0-29.2,4.7-42.8,14
		c-13.5,9.3-25.7,19.7-36.5,31C416.5,61,404.8,75.7,394,91.9c-16.2,0-31.9-1-47.2-3.1c-15.3-2.1-29.1-5.1-41.4-9
		c-12.3-3.9-22-8.6-29.2-14c-7.2-5.4-10.8-11.4-10.8-18c0-4.2,1-7.8,3.1-10.8c2.1-3,4.2-5.9,6.3-8.6c2.1-2.7,4.2-5.1,6.3-7.2
		c2.1-2.1,3.2-4.3,3.2-6.8c0-7.8-4.8-11.7-14.4-11.7c-7.2,0-18.2,2-32.9,5.9c-14.7,3.9-29.4,9.3-44.1,16.2
		c-14.7,6.9-27.4,15.3-38.2,25.2c-10.8,9.9-16.2,20.6-16.2,32c0,14.4,7.8,25.6,23.4,33.8c15.6,8.1,34.2,14.3,55.8,18.4
		c21.6,4.2,43.6,6.9,66.1,8.1c22.5,1.2,40.6,1.8,54.5,1.8l-81.9,75.6C232.3,223.9,210.7,229.3,191.5,235.9z"/>
</g>
</svg>
