<?xml version="1.0" encoding="utf-8"?>
<!-- Generator: Adobe Illustrator 25.4.1, SVG Export Plug-In . SVG Version: 6.00 Build 0)  -->
<svg version="1.1" id="Layer_1" xmlns="http://www.w3.org/2000/svg" xmlns:xlink="http://www.w3.org/1999/xlink" x="0px" y="0px"
	 viewBox="0 0 625 650" style="enable-background:new 0 0 625 650;" xml:space="preserve">
<style type="text/css">
	.st0{fill:#F7BBA1;}
	.st1{fill:#F8F8FF;}
</style>
<g>
	<g>
		<g>
			<path class="st0" d="M460.9,2.8c23.4,0,45,3.2,64.8,9.5c19.8,6.3,36.9,15.6,51.3,27.9c14.4,12.3,25.6,27,33.8,44.1
				c8.1,17.1,12.1,36.4,12.1,58c0,25.8-8.5,55.2-25.6,88.2c-17.1,33-39.6,66.8-67.5,101.2c-27.9,34.5-59.6,68.8-94.9,103
				c-35.4,34.2-71.4,65.4-108,93.6c17.4,4.2,34.6,7.5,51.8,9.9c17.1,2.4,33.8,3.6,49.9,3.6c16.8,0,31.8-2.4,45-7.2
				c13.2-4.8,24.4-10.2,33.8-16.2c9.3-6,16.9-11.4,23-16.2c6-4.8,10.5-7.2,13.5-7.2c7.2,0,10.8,3,10.8,9c0,2.4-1.8,7.7-5.4,15.8
				s-8.7,17.4-15.3,27.9c-6.6,10.5-14.4,21.6-23.4,33.3c-9,11.7-19.2,22.4-30.6,32c-11.4,9.6-23.6,17.5-36.5,23.8
				c-12.9,6.3-26.3,9.4-40,9.4c-22.2,0-47.1-6.3-74.7-18.9c-27.6-12.6-55.8-26.1-84.6-40.5c-28.8,18.6-55.7,33.2-80.5,43.6
				c-24.9,10.5-46.1,15.8-63.5,15.8c-30,0-54-8.1-72-24.3c-18-16.2-27-35.1-27-56.7c0-11.4,2.6-22.6,7.6-33.8
				c5.1-11.1,12.3-20.8,21.6-29.2c9.3-8.4,20.2-15.1,32.9-20.2c12.6-5.1,26.7-7.6,42.3-7.6c17.4,0,38.2,3.1,62.6,9.5
				c24.3,6.3,50.2,13.7,77.9,22c29.4-24.6,58.8-53.2,88.2-86c29.4-32.7,55.8-66.4,79.2-101.2c23.4-34.8,42.3-69.6,56.7-104.4
				c14.4-34.8,21.6-66.9,21.6-96.3c0-19.2-6.6-34.5-19.8-45.9C458.5,60.7,442.3,55,423.2,55c-16.8,0-35.3,5.6-55.4,16.6
				c-20.1,11.1-39,25.8-56.7,44.1c-17.7,18.3-32.4,38.9-44.1,61.6c-11.7,22.8-17.6,45.9-17.6,69.3c0,12.6,1.5,22.7,4.5,30.2
				c3,7.5,6.8,13,11.2,16.7c4.5,3.6,8.8,6,13.1,7.2c4.2,1.2,7.8,1.8,10.8,1.8c7.2,0,10.8,3,10.8,9c0,3-1.7,6.6-5,10.8
				c-3.3,4.2-8,8.6-14,13.1c-6,4.5-13.7,8.3-22.9,11.2c-9.3,3-19.7,4.5-31.1,4.5c-12,0-24-1.9-36-5.8c-12-3.9-22.9-9.6-32.8-17.1
				c-9.9-7.5-18-16.6-24.3-27.5c-6.3-10.8-9.4-23.1-9.4-36.9c0-37.8,10.6-72.7,31.9-104.8c21.3-32.1,48.4-59.7,81.5-82.8
				c33-23.1,69.3-41.1,108.9-54C386.3,9.2,424.3,2.8,460.9,2.8z M104.6,534.7c-13.8,0-24,2.6-30.6,7.7c-6.6,5.1-9.9,10.7-9.9,16.7
				c0,9,3.5,15.5,10.4,19.3c6.9,3.9,14.2,5.8,22,5.8c11.4,0,24-2.5,37.8-7.7c13.8-5.1,28.5-12.4,44.1-22c-13.8-6-27-10.8-39.6-14.4
				S114.7,534.7,104.6,534.7z"/>
		</g>
	</g>
</g>
<path class="st1" d="M491.6,339.7c-9.2,13.9-22.6,13.9-28.3,13.9c0,0,0,0,0,0v0c-5.7,0-19,0-28.3-13.9c-1-1.5-0.6-3.6,0.9-4.6
	c1.5-1,3.6-0.6,4.6,0.9c7.3,10.9,17.3,10.9,22.8,10.9v0c0,0,0,0,0,0h0c5.4,0,15.5,0,22.8-10.9c1-1.5,3.1-1.9,4.6-0.9
	C492.2,336.2,492.6,338.2,491.6,339.7z M424.5,254.9c-9.6,0-17.3,7.8-17.3,17.3s7.8,17.3,17.3,17.3c9.6,0,17.3-7.8,17.3-17.3
	S434.1,254.9,424.5,254.9z M502.1,254.9c-9.6,0-17.3,7.8-17.3,17.3s7.8,17.3,17.3,17.3c9.6,0,17.3-7.8,17.3-17.3
	S511.7,254.9,502.1,254.9z M597,272.2c0,12.4-3.5,24.1-9.9,33c-6.7,9.4-15.8,14.6-25.7,14.8v28.7c0,20-16.3,36.3-36.3,36.3H402.9
	c-20,0-36.3-16.3-36.3-36.3v-28.7c-9.7-0.3-18.7-5.6-25.3-14.8c-6.4-8.9-9.9-20.6-9.9-33s3.5-24.1,9.9-33
	c4.6-6.4,10.4-10.9,16.7-13.2c1.5-27.6,10.3-46,27.1-57.5c16.2-11.1,39.6-15.8,78.2-15.8s62,4.7,78.2,15.8
	c16.8,11.4,25.5,29.7,27.1,57c7,2,13.4,6.7,18.4,13.7C593.4,248.1,597,259.8,597,272.2z M366.6,306.8v-69.2
	c-5.4,0.4-10.6,3.6-14.6,9.3c-4.8,6.7-7.5,15.7-7.5,25.3s2.6,18.6,7.5,25.3C356.1,303.2,361.2,306.5,366.6,306.8z M402.9,190.4H525
	c10,0,19.1,4.1,25.6,10.6c-0.2-0.5-0.3-0.9-0.5-1.4c-3.5-8.6-8.7-15.2-16-20.2c-7.1-4.9-16.4-8.3-28.4-10.5c-11.1-2-25-3-42.4-3
	s-31.3,1-42.4,3c-11.9,2.2-21.2,5.6-28.4,10.5c-7.3,5-12.5,11.6-16,20.2c-0.5,1.2-0.9,2.4-1.3,3.6
	C381.9,195.4,391.8,190.4,402.9,190.4z M548.1,226.7c0-12.7-10.4-23.1-23.1-23.1H402.9c-12.7,0-23.1,10.4-23.1,23.1v122.1
	c0,12.7,10.4,23.1,23.1,23.1H525c12.7,0,23.1-10.4,23.1-23.1V226.7z M583.8,272.2c0-9.6-2.6-18.6-7.5-25.3c-4.2-5.8-9.5-9.1-15-9.3
	v69.3c5.5-0.2,10.8-3.5,15-9.3C581.1,290.9,583.8,281.9,583.8,272.2z M522.5,53h-3h-3.6v43.4c-0.5,0-1-0.1-1.6-0.1
	c-6.2,0-11.5,4.2-11.5,9c0,3.8,3.1,6.5,7.4,6.5c3.2,0,6.5-1.3,9.1-3.8c2.5-2.4,3.3-4.4,3.3-9L522.5,53L522.5,53z M591.5,75.5v41.7
	c0,6.3-5.1,11.4-11.5,11.4c-4.1,0-6.7-2.3-6.7-5.9c0-4.1,4.8-8.1,9.8-8.1c0.2,0,0.4,0,0.6,0V97.8l-27.7,6.8v21.1v0.3h0
	c0,4.2-0.9,6.5-3.2,8.5c-2.4,2.2-5.3,3.4-8.2,3.4c-4.1,0-6.7-2.3-6.7-5.8c0-4.2,4.8-8.1,9.9-8.1c0.6,0,1.1,0,1.5,0.1V87.4h0.2
	l-0.2-2.5L591.5,75.5z M583.8,85.3l-27.7,6.8v4.7l27.7-6.8V85.3z"/>
</svg>
